<?xml version="1.0" standalone="no"?>
<!DOCTYPE svg PUBLIC "-//W3C//DTD SVG 20010904//EN"
 "http://www.w3.org/TR/2001/REC-SVG-20010904/DTD/svg10.dtd">
<svg version="1.0" xmlns="http://www.w3.org/2000/svg"
 width="528.000000pt" height="356.000000pt" viewBox="0 0 528.000000 356.000000"
 preserveAspectRatio="xMidYMid meet">

<g transform="translate(0.000000,356.000000) scale(0.100000,-0.100000)"
fill="#000000" stroke="none">
<path d="M380 3355 l0 -95 85 0 85 0 0 95 0 95 -85 0 -85 0 0 -95z"/>
<path d="M540 2965 l0 -155 150 0 150 0 0 155 0 155 -150 0 -150 0 0 -155z"/>
<path d="M167 2804 c-4 -4 -7 -90 -7 -191 l0 -183 183 2 182 3 0 185 0 185
-176 3 c-96 1 -178 -1 -182 -4z"/>
<path d="M550 2201 l0 -211 573 0 c616 0 632 -1 720 -53 89 -53 112 -84 247
-342 34 -66 73 -138 85 -160 22 -38 56 -103 180 -340 142 -270 208 -391 219
-397 19 -13 201 -9 218 4 9 7 40 58 68 113 29 55 72 136 95 180 23 44 86 163
140 265 54 102 112 212 130 245 18 33 61 116 96 185 l64 125 3 -860 c2 -672 5
-861 15 -867 15 -9 220 -11 306 -2 l61 7 0 1149 0 1148 -236 -2 -236 -3 -57
-110 c-63 -120 -323 -619 -448 -861 -119 -229 -98 -222 -178 -64 -37 74 -118
234 -180 355 -63 121 -165 319 -227 440 -62 121 -117 228 -123 237 -9 15 -79
17 -772 23 l-763 8 0 -212z"/>
<path d="M3842 2223 l3 -168 570 -3 c314 -1 580 0 593 3 22 5 22 6 20 168 l-3
162 -593 3 -592 2 2 -167z"/>
<path d="M530 1015 l0 -895 720 0 720 0 0 170 0 170 -530 0 -529 0 -3 333 c-2
182 -1 338 1 345 2 9 101 12 452 12 l449 0 0 165 0 165 -450 0 -450 0 -2 213
-3 212 -187 3 -188 2 0 -895z"/>
<path d="M3872 1452 l-32 -3 2 -162 3 -162 493 -3 492 -2 0 165 c0 91 -3 166
-7 166 -20 3 -922 4 -951 1z"/>
<path d="M3868 433 l-28 -4 0 -170 0 -169 589 0 c528 0 589 2 595 16 3 9 6 84
6 168 l0 153 -157 6 c-168 7 -959 7 -1005 0z"/>
</g>
</svg>
