<?xml version="1.0" standalone="no"?>
<!DOCTYPE svg PUBLIC "-//W3C//DTD SVG 20010904//EN"
 "http://www.w3.org/TR/2001/REC-SVG-20010904/DTD/svg10.dtd">
<svg version="1.0" xmlns="http://www.w3.org/2000/svg"
 width="642.000000pt" height="378.000000pt" viewBox="0 0 642.000000 378.000000"
 preserveAspectRatio="xMidYMid meet">

<g transform="translate(0.000000,378.000000) scale(0.100000,-0.100000)"
fill="#000000" stroke="none">
<path d="M862 3313 c-6 -3 -10 -9 -6 -14 3 -5 0 -9 -5 -9 -6 0 -11 5 -11 10 0
13 -66 -21 -104 -53 -18 -16 -24 -27 -17 -31 6 -4 8 -12 5 -18 -4 -7 -9 -6
-14 2 -10 16 -34 -25 -26 -45 3 -8 -1 -20 -8 -28 -13 -12 -14 -67 -3 -164 3
-29 17 -42 17 -15 0 11 4 23 9 26 5 4 7 -11 4 -34 -4 -26 -2 -40 6 -40 6 0 11
7 11 16 0 8 5 12 10 9 8 -5 8 -11 1 -19 -6 -7 -7 -17 -3 -21 4 -5 0 -5 -8 0
-8 4 2 -10 23 -30 21 -20 39 -36 41 -34 2 2 6 16 10 30 4 20 1 29 -12 35 -9 4
-21 6 -25 5 -5 -1 -6 3 -2 8 3 6 -3 19 -14 30 -12 12 -18 27 -15 36 4 8 1 15
-6 15 -13 0 -10 122 5 154 6 13 5 17 -3 12 -6 -3 -16 3 -22 14 -7 13 -7 20 0
20 5 0 10 -4 10 -10 0 -17 24 -6 33 14 4 11 2 25 -5 35 -12 14 -11 15 5 2 15
-12 20 -12 27 -2 4 8 12 11 18 7 5 -3 15 1 22 9 8 9 8 15 2 15 -6 0 -12 -6
-15 -12 -3 -7 -4 -3 -4 10 1 12 6 21 12 18 44 -18 50 -17 25 4 l-25 23 25 -8
c14 -4 31 -13 39 -19 12 -9 13 -8 8 7 -4 11 -3 16 3 12 6 -3 38 -8 72 -10 34
-3 64 -8 67 -13 3 -5 16 -14 29 -21 18 -10 26 -10 38 0 14 11 13 15 -8 31 -13
9 -31 18 -40 18 -10 0 -18 5 -18 11 0 5 -4 8 -9 4 -5 -3 -13 -1 -16 5 -6 10
-105 12 -133 3z m178 -32 c14 -4 20 -9 15 -12 -6 -3 -26 0 -45 7 -37 14 -14
17 30 5z m-270 -31 c0 -5 -5 -10 -11 -10 -5 0 -7 5 -4 10 3 6 8 10 11 10 2 0
4 -4 4 -10z m310 0 c0 -5 -5 -10 -11 -10 -5 0 -7 5 -4 10 3 6 8 10 11 10 2 0
4 -4 4 -10z m-374 -126 c-3 -9 -6 -42 -6 -75 0 -32 -3 -59 -7 -59 -7 0 -8 43
-4 125 0 14 6 25 12 25 6 0 8 -7 5 -16z m61 -260 c-3 -3 -12 -4 -19 -1 -8 3
-5 6 6 6 11 1 17 -2 13 -5z"/>
<path d="M1317 3103 c-15 -8 -41 -33 -58 -55 -57 -79 -29 -205 56 -250 86 -47
201 -13 245 71 17 34 15 132 -4 170 -27 51 -85 81 -153 80 -32 -1 -71 -8 -86
-16z m166 -73 c22 -24 27 -40 27 -79 0 -90 -73 -141 -155 -107 -82 35 -82 172
0 215 36 19 97 5 128 -29z"/>
<path d="M2165 3111 c-3 -5 3 -11 12 -13 15 -3 14 -5 -4 -10 -16 -4 -23 -2
-23 9 0 11 -8 10 -40 -8 -22 -13 -40 -28 -40 -35 0 -7 -6 -15 -12 -17 -10 -4
-10 -7 0 -15 7 -5 10 -16 6 -27 -5 -11 -4 -16 3 -12 6 4 8 -3 5 -18 -2 -14 -9
-25 -14 -25 -5 0 -6 9 -3 20 4 12 2 20 -5 20 -6 0 -8 5 -5 10 3 6 1 10 -5 10
-13 0 -6 -82 10 -125 18 -47 28 -55 56 -44 14 5 23 5 20 0 -7 -11 22 -23 36
-15 5 3 -3 12 -17 20 -30 16 -51 18 -58 7 -2 -5 -2 -2 0 5 5 21 -8 36 -18 21
-6 -10 -9 -6 -9 14 0 30 14 36 24 11 4 -9 9 -14 12 -11 3 3 2 11 -2 18 -10 17
-11 109 -2 102 5 -2 8 0 8 6 0 5 -7 14 -15 18 -10 6 -11 13 -5 23 8 13 10 12
10 -2 0 -23 4 -23 48 7 20 14 45 25 55 25 10 0 15 5 12 10 -3 6 4 10 17 9 13
0 17 -3 10 -6 -10 -4 -10 -8 -1 -19 6 -8 15 -11 20 -8 5 3 9 0 9 -7 0 -10 3
-10 11 -2 9 9 16 6 30 -11 20 -25 23 -130 4 -154 -29 -39 -62 -63 -104 -76
l-46 -14 43 -1 c24 -1 41 3 37 8 -8 14 34 24 49 12 8 -7 16 -7 23 0 7 7 8 -4
3 -36 -4 -25 -3 -45 1 -45 4 0 12 -12 17 -27 l9 -28 7 35 c11 59 14 100 6 100
-3 0 -7 56 -7 125 0 68 4 122 8 119 5 -3 9 5 9 16 0 19 -4 21 -27 15 -41 -11
-83 -13 -77 -3 6 9 -38 28 -66 28 -10 0 -21 -4 -25 -9z m-35 -31 c0 -5 -5 -10
-11 -10 -5 0 -7 5 -4 10 3 6 8 10 11 10 2 0 4 -4 4 -10z m195 -20 c3 -5 1 -10
-4 -10 -6 0 -11 5 -11 10 0 6 2 10 4 10 3 0 8 -4 11 -10z m-5 -196 c0 -8 -5
-12 -10 -9 -6 4 -8 11 -5 16 9 14 15 11 15 -7z m20 -64 c0 -5 -2 -10 -4 -10
-3 0 -8 5 -11 10 -3 6 -1 10 4 10 6 0 11 -4 11 -10z"/>
<path d="M2634 3101 c-65 -40 -95 -114 -80 -196 9 -47 70 -110 120 -123 55
-16 126 1 161 38 l28 29 -27 12 c-22 10 -29 9 -47 -7 -40 -36 -159 -12 -159
31 0 15 60 46 155 80 73 26 80 36 61 73 -9 17 -31 42 -49 56 -42 32 -116 35
-163 7z m137 -51 c24 -20 24 -20 4 -32 -42 -26 -147 -68 -157 -62 -17 11 2 58
34 87 39 33 86 36 119 7z"/>
<path d="M940 3040 c0 -17 6 -20 48 -19 26 1 37 4 25 6 -13 2 -23 11 -23 19 0
8 -10 14 -25 14 -18 0 -25 -5 -25 -20z m40 6 c0 -2 -7 -6 -15 -10 -8 -3 -15
-1 -15 4 0 6 7 10 15 10 8 0 15 -2 15 -4z"/>
<path d="M1050 3050 c13 -9 13 -11 0 -20 -12 -7 -8 -10 15 -9 17 0 24 3 18 6
-15 6 -17 23 -3 23 21 0 48 -38 43 -61 -2 -13 3 -38 11 -54 16 -30 16 -29 10
29 -6 45 -4 57 5 52 7 -5 10 -19 7 -34 -3 -15 -2 -33 3 -41 8 -12 9 34 3 99
-2 12 -17 16 -64 18 -46 2 -59 0 -48 -8z"/>
<path d="M1171 3044 c0 -11 3 -14 6 -6 3 7 2 16 -1 19 -3 4 -6 -2 -5 -13z"/>
<path d="M2290 3026 c0 -8 5 -18 10 -21 6 -3 10 1 10 9 0 8 -4 18 -10 21 -5 3
-10 -1 -10 -9z"/>
<path d="M1110 2928 c0 -10 -5 -18 -12 -18 -6 0 -9 -3 -5 -6 7 -7 -58 -54 -75
-54 -5 0 -7 -7 -4 -16 3 -8 2 -13 -2 -10 -5 3 -39 6 -78 7 -38 1 -75 6 -81 12
-9 6 -13 6 -13 -2 0 -6 -8 -11 -17 -10 -11 0 -13 3 -5 6 17 7 15 23 -3 23 -19
0 -16 -47 4 -55 7 -3 16 -3 19 0 3 3 -1 5 -9 5 -11 0 -11 2 1 10 22 15 29 12
23 -9 -6 -24 14 -31 86 -29 36 1 48 4 35 9 -10 4 -14 8 -9 8 6 1 21 4 34 8 17
4 22 3 17 -5 -4 -7 -1 -12 8 -12 8 0 18 5 21 10 3 6 1 10 -5 10 -6 0 -8 5 -4
11 4 8 9 7 15 -2 6 -11 15 -7 41 16 44 41 58 59 49 65 -4 3 -13 14 -19 25 -10
17 -11 18 -12 3z m1 -59 c-13 -10 -30 -19 -39 -19 -10 0 -3 10 18 25 38 28 57
23 21 -6z m-176 -59 c-3 -5 -23 -9 -43 -9 l-37 1 30 8 c44 11 57 11 50 0z"/>
<path d="M2100 2815 c0 -2 13 -11 30 -20 41 -21 103 -19 131 5 19 15 20 19 8
20 -9 0 -19 -7 -23 -15 -7 -19 -72 -19 -106 0 -26 15 -40 18 -40 10z"/>
<path d="M2301 2710 c0 -14 4 -32 9 -40 9 -13 10 -13 9 0 -1 8 -5 26 -9 40
l-8 25 -1 -25z"/>
<path d="M2079 2718 c-17 -58 21 -88 116 -91 36 -1 65 1 65 5 0 5 9 8 20 8 13
0 20 7 20 19 0 27 -21 37 -35 18 -7 -9 -15 -13 -19 -9 -4 4 -6 1 -4 -7 2 -7
-3 -16 -11 -19 -8 -3 -11 0 -7 7 5 7 -1 11 -14 11 -12 0 -19 -4 -16 -9 3 -5
-5 -11 -19 -13 -13 -3 -22 -2 -20 2 3 4 -11 24 -29 44 -31 32 -44 42 -47 34z
m49 -63 c2 -18 1 -18 -10 -4 -7 9 -20 19 -28 22 -9 4 -5 6 10 4 16 -1 26 -9
28 -22z"/>
<path d="M640 1930 l0 -441 76 3 76 3 -1 162 c-1 88 1 173 5 187 l6 26 182 -2
181 -3 3 -187 2 -188 80 0 80 0 0 440 0 440 -80 0 -80 0 0 -175 0 -175 -187 2
-188 3 -1 170 -2 170 -76 3 -76 3 0 -441z m128 238 l2 -178 215 0 215 0 0 180
0 180 50 0 50 0 0 -420 0 -420 -50 0 -50 0 -2 188 -3 187 -212 3 -213 2 -2
-187 -3 -188 -50 0 -50 0 -3 405 c-1 223 0 411 3 418 3 9 20 12 52 10 l48 -3
3 -177z"/>
<path d="M3240 1930 l0 -441 78 3 77 3 3 438 2 437 -80 0 -80 0 0 -440z m125
0 l0 -415 -45 0 -45 0 -3 418 -2 418 47 -3 48 -3 0 -415z"/>
<path d="M2827 2293 c-4 -3 -7 -42 -7 -85 0 -55 -4 -78 -12 -79 -7 -1 -20 -2
-28 -3 -8 -2 -25 -3 -37 -4 -21 -2 -23 -7 -23 -66 l0 -65 48 -3 47 -3 5 -185
c5 -174 7 -188 30 -229 42 -76 147 -116 235 -90 l45 13 0 78 0 77 -34 -14
c-43 -18 -90 -10 -105 19 -8 14 -11 74 -9 176 l3 155 73 3 72 3 0 64 c0 64 -1
65 -27 67 -16 0 -35 0 -43 0 -8 -1 -30 0 -47 3 l-33 6 0 84 0 85 -73 0 c-41 0
-77 -3 -80 -7z m123 -104 l5 -84 73 -3 72 -3 0 -44 0 -44 -72 -3 -73 -3 0
-172 c0 -159 2 -174 21 -200 18 -24 29 -28 78 -31 l56 -3 0 -39 c0 -47 -18
-60 -82 -60 -67 1 -129 37 -155 90 -21 41 -23 57 -23 232 l0 188 -49 0 c-52 0
-58 5 -57 55 1 29 3 30 54 33 l52 3 0 83 c0 45 2 85 5 87 2 3 23 4 47 3 l43
-1 5 -84z"/>
<path d="M2314 2132 c-112 -36 -159 -92 -158 -185 1 -94 60 -152 189 -188 44
-11 99 -30 123 -40 39 -18 43 -22 40 -51 -4 -44 -36 -60 -112 -55 -56 3 -62 6
-100 49 l-41 45 -63 -28 c-34 -16 -62 -34 -62 -42 0 -20 54 -91 87 -115 55
-39 105 -53 188 -53 119 0 210 45 251 123 18 35 18 121 -1 157 -30 59 -118
113 -207 126 -23 4 -63 16 -88 28 -35 17 -46 28 -48 49 -8 69 161 77 198 9 6
-12 15 -21 20 -21 14 0 118 49 124 58 9 14 -41 78 -77 100 -45 26 -136 52
-179 51 -18 -1 -56 -8 -84 -17z m182 -28 c58 -20 100 -47 115 -76 13 -24 13
-23 -33 -43 -30 -12 -39 -12 -50 -2 -35 35 -69 48 -123 48 -88 0 -138 -45
-116 -103 13 -34 43 -49 151 -78 151 -39 201 -82 203 -174 1 -69 -26 -114 -95
-152 -48 -26 -62 -29 -143 -28 -99 1 -138 15 -203 77 -42 40 -39 67 8 85 35
13 36 12 77 -26 106 -101 305 -38 243 77 -10 20 -86 53 -163 70 -148 35 -213
117 -177 225 30 92 181 141 306 100z"/>
<path d="M3720 2131 c-102 -37 -154 -84 -198 -180 -21 -47 -26 -71 -26 -146 0
-75 5 -99 26 -146 35 -78 80 -124 153 -159 55 -26 74 -30 150 -30 79 0 93 3
147 32 59 31 138 108 138 134 0 12 -94 64 -117 64 -5 0 -22 -14 -39 -31 -84
-90 -230 -73 -282 33 -13 26 -21 52 -17 58 4 6 87 10 235 10 222 0 229 1 235
21 11 35 -6 121 -36 186 -38 81 -93 127 -180 153 -78 23 -127 24 -189 1z m190
-27 c106 -34 182 -140 184 -254 l1 -55 -239 -3 -238 -2 7 -38 c16 -88 83 -153
170 -166 60 -10 119 8 165 50 38 35 39 35 74 20 20 -8 36 -21 36 -29 0 -21
-82 -93 -127 -113 -25 -11 -67 -17 -123 -18 -70 0 -93 4 -128 22 -66 35 -117
87 -143 145 -33 74 -33 210 -1 282 63 138 218 206 362 159z"/>
<path d="M3725 2011 c-56 -33 -112 -118 -92 -138 5 -4 203 -6 340 -3 44 1 2
94 -62 137 -44 30 -141 32 -186 4z m162 -20 c38 -18 73 -61 73 -91 0 -12 -286
-14 -294 -2 -10 16 36 71 77 91 52 26 90 26 144 2z"/>
<path d="M1498 2122 l-28 -3 0 -223 c0 -241 7 -290 53 -349 39 -52 98 -77 177
-77 71 0 103 9 154 43 23 16 30 17 36 6 5 -7 6 -17 4 -21 -3 -4 31 -8 75 -8
l81 0 0 314 c0 291 -1 315 -17 319 -16 4 -60 4 -125 -2 -15 -1 -17 -23 -20
-204 l-3 -204 -29 -37 c-66 -87 -180 -84 -220 4 -6 15 -13 111 -16 234 l-5
209 -45 1 c-25 0 -57 0 -72 -2z m93 -44 c0 -13 0 -82 -1 -154 -1 -180 13 -259
55 -301 30 -30 39 -33 92 -33 71 0 111 22 150 82 28 43 28 45 31 236 l4 192
49 0 49 0 0 -296 0 -295 -47 3 c-48 3 -48 3 -51 41 -4 45 -18 47 -56 7 -47
-50 -83 -65 -161 -64 -79 0 -118 16 -158 64 -43 51 -50 91 -54 323 l-5 217 51
0 c46 0 51 -2 52 -22z"/>
<path d="M860 1188 c-12 -35 -37 -101 -55 -148 -18 -47 -47 -125 -65 -175 -18
-49 -38 -103 -45 -120 -7 -16 -29 -75 -49 -130 -46 -122 -64 -170 -83 -213 -8
-18 -11 -37 -8 -42 3 -6 41 -10 84 -10 89 0 82 -7 126 125 15 44 32 86 37 93
8 9 54 12 169 12 184 0 158 16 212 -135 l32 -90 85 0 c51 0 84 4 83 10 -2 12
-209 570 -222 600 -5 11 -31 79 -58 150 l-48 130 -86 3 -86 3 -23 -63z m177
20 c5 -7 67 -168 138 -358 70 -190 136 -364 147 -387 10 -23 18 -51 18 -62 0
-19 -6 -21 -54 -21 l-53 0 -21 63 c-12 34 -29 83 -38 110 l-16 47 -188 0 -188
0 -40 -107 -40 -108 -56 -3 c-31 -2 -56 0 -56 4 0 8 184 504 200 539 5 11 18
47 30 80 12 33 35 95 52 138 l31 77 62 0 c38 0 66 -5 72 -12z"/>
<path d="M932 1028 c-11 -35 -40 -120 -65 -190 -25 -69 -43 -129 -40 -132 8
-7 278 -8 285 -1 3 3 -15 61 -39 128 -25 67 -55 151 -67 187 -31 88 -49 90
-74 8z m67 -68 c13 -36 27 -74 31 -85 5 -11 15 -40 23 -65 8 -25 18 -53 22
-62 7 -17 -2 -18 -105 -18 -111 0 -111 0 -105 23 14 45 77 223 86 239 5 10 9
25 9 35 0 28 15 2 39 -67z"/>
<path d="M3235 1238 c-3 -7 -6 -75 -7 -151 l-3 -137 -40 27 c-35 24 -52 28
-126 31 -70 3 -96 0 -131 -16 -97 -43 -156 -120 -183 -241 -15 -63 -15 -82 -5
-135 23 -109 74 -186 157 -237 54 -32 62 -34 148 -34 85 0 93 2 138 32 38 26
49 30 52 18 3 -8 7 -22 10 -30 3 -11 19 -15 62 -15 32 0 64 4 71 8 10 7 12
103 10 448 l-3 439 -73 3 c-52 2 -74 -1 -77 -10z m125 -439 l0 -420 -47 3
c-48 3 -48 3 -51 41 -4 44 -19 47 -53 11 -66 -71 -191 -87 -290 -36 -94 47
-159 165 -159 288 0 122 93 257 199 288 101 29 183 14 243 -46 21 -21 43 -38
48 -38 6 0 10 62 10 165 l0 165 50 0 50 0 0 -421z"/>
<path d="M2985 876 c-61 -28 -92 -69 -111 -146 -14 -51 -14 -64 0 -112 29 -99
100 -158 190 -158 61 0 104 19 143 63 42 48 56 96 51 175 -5 89 -44 149 -117
181 -63 27 -94 26 -156 -3z m178 -39 c48 -37 71 -89 71 -162 -1 -70 -18 -109
-68 -153 -86 -75 -208 -40 -257 76 -29 68 -21 136 24 205 45 69 161 87 230 34z"/>
<path d="M1625 1003 c-35 -9 -122 -70 -148 -105 -62 -83 -86 -179 -68 -275 22
-119 80 -200 183 -255 37 -20 58 -23 144 -23 87 0 107 3 148 24 46 24 113 88
135 129 13 25 6 31 -67 62 l-54 23 -26 -33 c-28 -36 -92 -69 -134 -70 -69 0
-133 48 -166 123 -28 65 -4 175 49 224 71 65 187 57 239 -17 12 -16 27 -30 35
-30 29 0 125 44 125 57 0 23 -48 90 -82 116 -65 47 -100 57 -200 56 -51 -1
-102 -4 -113 -6z m250 -43 c39 -19 115 -92 115 -110 0 -7 -66 -40 -81 -40 -5
0 -24 15 -43 33 -56 57 -140 71 -212 36 -160 -77 -158 -338 3 -405 73 -31 183
-8 227 48 22 29 23 29 58 15 20 -8 39 -20 43 -26 11 -18 -40 -77 -93 -108 -44
-26 -55 -28 -157 -28 l-110 0 -56 38 c-118 78 -165 219 -124 362 28 96 113
182 202 205 60 15 177 5 228 -20z"/>
<path d="M2215 985 c-47 -24 -115 -81 -115 -96 0 -4 23 -26 51 -48 l52 -41 37
34 c82 74 233 51 256 -39 10 -39 -1 -44 -59 -29 -68 18 -114 18 -187 -3 -109
-30 -170 -105 -170 -208 0 -84 32 -137 115 -191 24 -15 48 -19 120 -19 82 0
94 2 130 28 48 33 53 33 57 5 3 -21 8 -23 73 -23 l70 0 0 250 0 250 -26 40
c-58 88 -116 114 -254 115 -87 0 -106 -3 -150 -25z m292 -21 c54 -26 100 -85
112 -146 7 -31 10 -131 9 -243 l-3 -190 -47 -3 -48 -3 0 35 c0 19 -5 38 -10
41 -6 4 -31 -12 -56 -34 -52 -46 -86 -55 -178 -49 -94 6 -157 58 -177 148 -28
125 82 230 239 230 37 0 85 -7 107 -15 62 -22 75 -20 75 15 0 48 -24 95 -66
126 -33 25 -46 29 -105 29 -60 0 -72 -4 -114 -33 l-46 -32 -30 20 c-16 12 -29
26 -29 32 0 23 76 72 137 88 51 13 189 3 230 -16z"/>
<path d="M2291 666 c-84 -30 -108 -121 -48 -180 83 -84 232 -37 272 85 21 61
13 73 -58 94 -60 18 -119 18 -166 1z m173 -31 c42 -18 46 -38 14 -85 -42 -61
-110 -92 -170 -77 -72 18 -93 104 -37 151 26 22 40 26 94 26 34 0 79 -7 99
-15z"/>
<path d="M3665 986 c-164 -78 -232 -295 -147 -469 35 -70 65 -102 137 -143 46
-26 58 -28 155 -28 112 0 140 9 215 72 32 27 75 81 75 94 0 4 -28 21 -62 38
l-62 29 -28 -33 c-81 -98 -229 -85 -288 26 -13 26 -21 50 -18 54 4 3 90 6 190
6 101 0 205 2 232 5 l49 5 -5 82 c-7 100 -38 168 -101 220 -65 53 -104 66
-204 66 -72 0 -97 -5 -138 -24z m267 -24 c84 -37 148 -138 151 -240 l2 -57
-237 -3 c-265 -3 -249 3 -226 -74 39 -132 223 -178 326 -81 38 36 58 38 96 10
19 -14 19 -16 3 -40 -22 -35 -79 -76 -124 -93 -57 -20 -189 -17 -239 5 -65 29
-115 80 -146 148 -23 52 -28 76 -28 143 0 44 4 88 9 98 4 9 17 35 27 57 33 69
103 126 179 146 47 13 160 2 207 -19z"/>
<path d="M3753 900 c-46 -11 -97 -52 -117 -95 -33 -69 -31 -70 158 -73 95 -1
174 2 179 7 25 25 -27 117 -82 145 -36 19 -99 26 -138 16z m117 -36 c37 -15
80 -65 80 -93 0 -8 -45 -11 -150 -11 -107 0 -150 3 -150 12 0 6 12 27 26 46
46 60 117 77 194 46z"/>
<path d="M4435 989 c-22 -12 -43 -26 -46 -32 -10 -14 -29 1 -29 24 0 17 -7 19
-75 19 l-75 0 2 -322 3 -323 75 0 75 0 5 210 c5 199 6 212 28 242 33 46 61 63
105 63 98 0 111 -33 114 -285 1 -110 3 -208 3 -218 0 -16 8 -18 73 -15 l72 3
5 205 c5 222 11 246 66 289 37 29 104 28 139 -1 38 -33 44 -79 45 -300 l0
-198 63 0 c34 0 68 4 75 9 11 6 13 57 10 252 -3 232 -4 246 -27 292 -12 26
-39 60 -59 75 -33 25 -42 27 -137 27 -107 0 -106 0 -201 -70 -9 -6 -18 -3 -31
12 -56 64 -196 85 -278 42z m224 -32 c20 -13 43 -37 51 -53 8 -16 16 -31 17
-33 2 -3 19 14 39 38 45 52 77 69 146 77 106 12 190 -35 216 -123 8 -26 12
-118 12 -262 l0 -222 -47 3 -48 3 -5 210 c-6 222 -12 253 -55 281 -71 46 -169
16 -215 -66 -24 -43 -25 -54 -28 -237 l-4 -193 -49 0 -49 0 0 208 c-1 174 -4
212 -18 241 -23 47 -75 73 -131 68 -58 -6 -90 -32 -123 -97 -28 -53 -28 -57
-28 -237 l0 -183 -50 0 -50 0 0 295 0 295 50 0 50 0 0 -40 c0 -44 21 -55 40
-21 14 27 65 62 104 72 53 14 135 3 175 -24z"/>
<path d="M5213 988 c14 -34 137 -318 155 -358 77 -169 92 -205 92 -225 0 -12
-14 -53 -31 -91 -43 -95 -90 -197 -96 -206 -2 -5 34 -8 80 -8 l84 0 98 227
c54 126 108 251 121 278 12 28 37 84 54 125 35 82 46 107 84 193 14 32 26 62
26 67 0 15 -156 13 -167 -2 -5 -7 -33 -71 -61 -143 -78 -199 -94 -235 -104
-235 -4 0 -13 12 -18 28 -6 15 -15 36 -20 47 -5 11 -36 85 -69 165 l-60 145
-87 3 c-67 2 -85 0 -81 -10z m171 -66 c10 -26 25 -60 32 -77 7 -16 29 -70 49
-120 57 -142 75 -177 88 -172 10 3 65 129 148 337 34 87 27 80 86 80 62 0 62
2 17 -95 -12 -27 -34 -78 -48 -112 -15 -35 -37 -86 -50 -115 -13 -29 -36 -82
-51 -118 -29 -69 -43 -100 -97 -220 -19 -41 -43 -97 -53 -125 -11 -27 -24 -53
-29 -57 -19 -13 -96 -9 -96 5 0 6 25 66 55 132 60 129 62 141 41 188 -15 33
-27 60 -96 217 -23 52 -53 120 -67 150 -14 30 -26 60 -27 65 -1 6 -10 24 -19
42 -9 18 -17 34 -17 38 0 3 26 5 58 5 l57 0 19 -48z"/>
</g>
</svg>
